<svg width="610" height="129" viewBox="0 0 610 129" fill="none" xmlns="http://www.w3.org/2000/svg">
<path d="M0.0692199 17.4746C-1.13078 49.4746 13.5692 76.8079 21.0692 86.4746C49.0692 58.8746 81.0692 66.9746 93.5692 74.4746C94.5692 72.9746 96.9692 69.0746 98.5692 65.4746C87.0692 59.4746 80.0692 58.9746 70.0692 56.9746C61.6692 45.3746 58.9025 27.8079 58.5692 20.4746H48.5692C47.0692 33.9746 56.5692 52.9746 58.5692 56.9746C35.0692 60.4746 27.0692 68.4746 23.5692 71.4746C11.1692 50.6746 9.73588 23.1413 10.5692 11.9746C8.40255 13.1413 3.26922 15.8746 0.0692199 17.4746Z" fill="#0F172A"/>
<path d="M20.0693 7.97501V19.475C72.5693 -3.52459 114.069 20.9746 119.069 23.4746C119.869 43.8746 107.736 69.6413 101.569 79.9746C102.569 80.9746 105.469 83.5746 109.069 85.9746C129.569 54.4746 129.069 22.9746 129.069 16.975C83.0693 -8.62499 37.236 0.308347 20.0693 7.97501Z" fill="#0F172A"/>
<path d="M39.0693 109.474L45.5693 115.475C50.5693 108.974 55.0693 106.328 59.0693 105.472C73.0693 102.475 80.5693 110.972 84.0693 114.971C85.4027 113.972 88.6693 111.372 91.0693 108.971C86.5693 103.971 81.5693 99.4746 72.0693 96.4743C56.0693 92.4743 43.4027 103.474 39.0693 109.474Z" fill="#0F172A"/>
<path d="M26.0693 93.9853L32.5693 101.985C37.5693 93.9853 52.0828 87.4238 59.5693 86.9746C84.5693 85.4746 93.5693 97.9855 97.0693 101.985C98.0693 100.975 101.569 96.4746 103.569 93.9853C99.0693 88.985 87.5693 78.475 70.5693 76.475C50.4043 74.1026 30.4027 87.9853 26.0693 93.9853Z" fill="#0F172A"/>
<path d="M75.0693 120.975C66.5693 110.975 58.5693 116.474 54.0693 120.975L65.5693 128.475C66.736 127.642 70.2693 124.975 75.0693 120.975Z" fill="#0F172A"/>
<path d="M175.76 19.32V51H167.504V19.32H175.76ZM181.975 51V27H189.271L189.703 35.256L188.791 34.344C189.271 31.784 190.279 29.848 191.815 28.536C193.351 27.192 195.287 26.52 197.623 26.52C199.255 26.52 200.679 26.84 201.895 27.48C203.111 28.12 204.055 29.08 204.727 30.36C205.431 31.608 205.783 33.16 205.783 35.016V51H197.623V37.176C197.623 35.544 197.319 34.408 196.711 33.768C196.103 33.096 195.303 32.76 194.311 32.76C193.575 32.76 192.887 32.952 192.247 33.336C191.607 33.688 191.095 34.264 190.711 35.064C190.327 35.864 190.135 36.936 190.135 38.28V51H181.975ZM222.738 26.52C225.138 26.52 227.138 26.872 228.738 27.576C230.338 28.248 231.586 29.144 232.482 30.264C233.378 31.384 233.954 32.616 234.21 33.96L226.674 36.456C226.45 35.048 226.05 34.008 225.474 33.336C224.93 32.664 224.098 32.328 222.978 32.328C221.986 32.328 221.154 32.568 220.482 33.048C219.81 33.528 219.298 34.264 218.946 35.256C218.626 36.248 218.466 37.528 218.466 39.096C218.466 40.664 218.642 41.944 218.994 42.936C219.378 43.896 219.906 44.6 220.578 45.048C221.282 45.464 222.098 45.672 223.026 45.672C223.794 45.672 224.434 45.528 224.946 45.24C225.49 44.92 225.922 44.472 226.242 43.896C226.562 43.32 226.786 42.616 226.914 41.784L234.258 44.136C234.034 45.512 233.442 46.76 232.482 47.88C231.522 49 230.242 49.88 228.642 50.52C227.074 51.16 225.218 51.48 223.074 51.48C220.482 51.48 218.226 50.984 216.306 49.992C214.386 49 212.898 47.576 211.842 45.72C210.786 43.864 210.258 41.624 210.258 39C210.258 36.376 210.786 34.136 211.842 32.28C212.898 30.424 214.354 29 216.21 28.008C218.098 27.016 220.274 26.52 222.738 26.52ZM246.619 27V51H238.459V27H246.619ZM242.539 24.216C240.875 24.216 239.659 23.912 238.891 23.304C238.155 22.664 237.787 21.672 237.787 20.328C237.787 18.952 238.155 17.96 238.891 17.352C239.659 16.712 240.875 16.392 242.539 16.392C244.203 16.392 245.403 16.712 246.139 17.352C246.907 17.96 247.291 18.952 247.291 20.328C247.291 21.672 246.907 22.664 246.139 23.304C245.403 23.912 244.203 24.216 242.539 24.216ZM261.116 51.48C259.164 51.48 257.452 51 255.98 50.04C254.54 49.048 253.404 47.624 252.572 45.768C251.772 43.912 251.372 41.688 251.372 39.096C251.372 36.408 251.788 34.136 252.62 32.28C253.484 30.392 254.652 28.968 256.124 28.008C257.628 27.016 259.356 26.52 261.308 26.52C263.484 26.52 265.228 27.176 266.54 28.488C267.852 29.8 268.684 31.496 269.036 33.576L268.268 34.584V16.824H276.428V51H269.132L268.604 42.84L269.564 43.56C269.34 45.128 268.844 46.52 268.076 47.736C267.34 48.92 266.38 49.848 265.196 50.52C264.012 51.16 262.652 51.48 261.116 51.48ZM263.948 45.48C264.844 45.48 265.612 45.224 266.252 44.712C266.892 44.2 267.388 43.464 267.74 42.504C268.092 41.512 268.268 40.296 268.268 38.856C268.268 37.512 268.092 36.376 267.74 35.448C267.42 34.488 266.94 33.768 266.3 33.288C265.66 32.776 264.892 32.52 263.996 32.52C262.62 32.52 261.532 33.048 260.732 34.104C259.964 35.16 259.58 36.792 259.58 39C259.58 41.208 259.964 42.84 260.732 43.896C261.5 44.952 262.572 45.48 263.948 45.48ZM293.855 51.48C291.231 51.48 288.959 51 287.039 50.04C285.119 49.048 283.631 47.624 282.575 45.768C281.551 43.88 281.039 41.624 281.039 39C281.039 36.344 281.567 34.088 282.623 32.232C283.679 30.376 285.135 28.968 286.991 28.008C288.879 27.016 291.039 26.52 293.471 26.52C295.967 26.52 298.095 27.016 299.855 28.008C301.615 28.968 302.959 30.312 303.887 32.04C304.815 33.736 305.279 35.688 305.279 37.896C305.279 38.504 305.263 39.096 305.231 39.672C305.199 40.216 305.151 40.68 305.087 41.064H286.319V36.696H301.487L297.599 38.184C297.599 36.904 297.439 35.832 297.119 34.968C296.831 34.072 296.383 33.4 295.775 32.952C295.167 32.472 294.399 32.232 293.471 32.232C292.479 32.232 291.631 32.472 290.927 32.952C290.223 33.432 289.695 34.184 289.343 35.208C288.991 36.232 288.815 37.544 288.815 39.144C288.815 40.712 289.007 41.992 289.391 42.984C289.807 43.944 290.383 44.648 291.119 45.096C291.887 45.512 292.799 45.72 293.855 45.72C295.007 45.72 295.951 45.48 296.687 45C297.423 44.52 297.951 43.848 298.271 42.984L304.799 45.144C304.351 46.52 303.567 47.688 302.447 48.648C301.359 49.576 300.063 50.28 298.559 50.76C297.087 51.24 295.519 51.48 293.855 51.48ZM309.85 51V27H317.146L317.578 35.256L316.666 34.344C317.146 31.784 318.154 29.848 319.69 28.536C321.226 27.192 323.162 26.52 325.498 26.52C327.13 26.52 328.554 26.84 329.77 27.48C330.986 28.12 331.93 29.08 332.602 30.36C333.306 31.608 333.658 33.16 333.658 35.016V51H325.498V37.176C325.498 35.544 325.194 34.408 324.586 33.768C323.978 33.096 323.178 32.76 322.186 32.76C321.45 32.76 320.762 32.952 320.122 33.336C319.482 33.688 318.97 34.264 318.586 35.064C318.202 35.864 318.01 36.936 318.01 38.28V51H309.85ZM348.989 19.368V42.456C348.989 43.608 349.261 44.44 349.805 44.952C350.349 45.432 351.117 45.672 352.109 45.672C352.845 45.672 353.485 45.576 354.029 45.384C354.573 45.192 355.069 44.936 355.517 44.616L356.381 49.656C355.581 50.2 354.573 50.648 353.357 51C352.173 51.32 350.957 51.48 349.709 51.48C346.989 51.48 344.829 50.904 343.229 49.752C341.661 48.568 340.877 46.584 340.877 43.8V21.624L348.989 19.368ZM355.997 27V32.808H336.797V27H355.997ZM388.914 19.32C392.626 19.32 395.506 20.2 397.554 21.96C399.602 23.72 400.626 26.088 400.626 29.064C400.626 31.208 400.162 33.032 399.234 34.536C398.338 36.008 397.01 37.128 395.25 37.896C393.522 38.632 391.426 39 388.962 39L388.194 39.432H382.194V51H374.082V19.32H388.914ZM387.762 33.576C389.138 33.576 390.242 33.288 391.074 32.712C391.906 32.136 392.322 31.08 392.322 29.544C392.322 27.976 391.89 26.92 391.026 26.376C390.162 25.832 389.074 25.56 387.762 25.56H382.194V33.576H387.762ZM392.61 35.304L402.45 51H393.33L385.506 37.128L392.61 35.304ZM416.762 51.48C414.138 51.48 411.866 51 409.946 50.04C408.026 49.048 406.538 47.624 405.482 45.768C404.458 43.88 403.946 41.624 403.946 39C403.946 36.344 404.474 34.088 405.53 32.232C406.586 30.376 408.042 28.968 409.898 28.008C411.786 27.016 413.946 26.52 416.378 26.52C418.874 26.52 421.002 27.016 422.762 28.008C424.522 28.968 425.866 30.312 426.794 32.04C427.722 33.736 428.186 35.688 428.186 37.896C428.186 38.504 428.17 39.096 428.138 39.672C428.106 40.216 428.058 40.68 427.994 41.064H409.226V36.696H424.394L420.506 38.184C420.506 36.904 420.346 35.832 420.026 34.968C419.738 34.072 419.29 33.4 418.682 32.952C418.074 32.472 417.306 32.232 416.378 32.232C415.386 32.232 414.538 32.472 413.834 32.952C413.13 33.432 412.602 34.184 412.25 35.208C411.898 36.232 411.722 37.544 411.722 39.144C411.722 40.712 411.914 41.992 412.298 42.984C412.714 43.944 413.29 44.648 414.026 45.096C414.794 45.512 415.706 45.72 416.762 45.72C417.914 45.72 418.858 45.48 419.594 45C420.33 44.52 420.858 43.848 421.178 42.984L427.706 45.144C427.258 46.52 426.474 47.688 425.354 48.648C424.266 49.576 422.97 50.28 421.466 50.76C419.994 51.24 418.426 51.48 416.762 51.48ZM442.692 51.48C440.292 51.48 438.084 51.096 436.068 50.328C434.084 49.528 432.404 48.392 431.028 46.92L434.82 42.408C435.62 43.432 436.676 44.296 437.988 45C439.332 45.672 440.788 46.008 442.356 46.008C443.284 46.008 444.068 45.864 444.708 45.576C445.348 45.288 445.668 44.84 445.668 44.232C445.668 43.784 445.508 43.432 445.188 43.176C444.868 42.888 444.244 42.648 443.316 42.456L440.052 41.784C437.044 41.144 434.916 40.232 433.668 39.048C432.452 37.864 431.844 36.296 431.844 34.344C431.844 33.032 432.244 31.784 433.044 30.6C433.844 29.416 435.06 28.44 436.692 27.672C438.356 26.904 440.452 26.52 442.98 26.52C445.412 26.52 447.54 26.888 449.364 27.624C451.188 28.328 452.644 29.336 453.732 30.648L449.892 35.064C449.124 34.104 448.132 33.352 446.916 32.808C445.732 32.264 444.548 31.992 443.364 31.992C442.596 31.992 441.956 32.072 441.444 32.232C440.964 32.36 440.596 32.552 440.34 32.808C440.084 33.064 439.956 33.384 439.956 33.768C439.956 34.216 440.164 34.6 440.58 34.92C440.996 35.208 441.7 35.448 442.692 35.64L447.012 36.504C449.444 36.984 451.188 37.816 452.244 39C453.332 40.152 453.876 41.56 453.876 43.224C453.876 45.56 452.948 47.528 451.092 49.128C449.236 50.696 446.436 51.48 442.692 51.48ZM458.116 61.08V27H465.46L465.892 35.688L464.932 34.68C465.284 32.312 466.212 30.36 467.716 28.824C469.22 27.288 471.14 26.52 473.476 26.52C475.428 26.52 477.124 27.016 478.564 28.008C480.004 28.968 481.124 30.376 481.924 32.232C482.756 34.056 483.172 36.28 483.172 38.904C483.172 41.56 482.756 43.832 481.924 45.72C481.092 47.576 479.94 49 478.468 49.992C477.028 50.984 475.332 51.48 473.38 51.48C471.236 51.48 469.492 50.824 468.148 49.512C466.836 48.2 465.956 46.568 465.508 44.616L466.276 43.464V61.08H458.116ZM470.596 45.48C471.94 45.48 472.996 44.952 473.764 43.896C474.564 42.84 474.964 41.208 474.964 39C474.964 36.792 474.58 35.16 473.812 34.104C473.044 33.048 471.988 32.52 470.644 32.52C469.748 32.52 468.964 32.776 468.292 33.288C467.652 33.768 467.156 34.488 466.804 35.448C466.452 36.408 466.276 37.592 466.276 39C466.276 40.344 466.436 41.496 466.756 42.456C467.108 43.416 467.604 44.168 468.244 44.712C468.884 45.224 469.668 45.48 470.596 45.48ZM499.255 26.52C501.751 26.52 503.943 27.016 505.831 28.008C507.719 29 509.191 30.424 510.247 32.28C511.335 34.136 511.879 36.376 511.879 39C511.879 41.624 511.335 43.864 510.247 45.72C509.191 47.576 507.719 49 505.831 49.992C503.943 50.984 501.751 51.48 499.255 51.48C496.791 51.48 494.615 50.984 492.727 49.992C490.839 49 489.367 47.576 488.311 45.72C487.255 43.864 486.727 41.624 486.727 39C486.727 36.376 487.255 34.136 488.311 32.28C489.367 30.424 490.839 29 492.727 28.008C494.615 27.016 496.791 26.52 499.255 26.52ZM499.255 32.328C498.359 32.328 497.575 32.568 496.903 33.048C496.263 33.496 495.767 34.216 495.415 35.208C495.095 36.168 494.935 37.432 494.935 39C494.935 40.568 495.095 41.848 495.415 42.84C495.767 43.8 496.263 44.52 496.903 45C497.575 45.448 498.359 45.672 499.255 45.672C500.183 45.672 500.967 45.448 501.607 45C502.279 44.52 502.791 43.784 503.143 42.792C503.495 41.8 503.671 40.536 503.671 39C503.671 37.432 503.495 36.168 503.143 35.208C502.791 34.216 502.279 33.496 501.607 33.048C500.967 32.568 500.183 32.328 499.255 32.328ZM516.475 51V27H523.771L524.203 35.256L523.291 34.344C523.771 31.784 524.779 29.848 526.315 28.536C527.851 27.192 529.787 26.52 532.123 26.52C533.755 26.52 535.179 26.84 536.395 27.48C537.611 28.12 538.555 29.08 539.227 30.36C539.931 31.608 540.283 33.16 540.283 35.016V51H532.123V37.176C532.123 35.544 531.819 34.408 531.211 33.768C530.603 33.096 529.803 32.76 528.811 32.76C528.075 32.76 527.387 32.952 526.747 33.336C526.107 33.688 525.595 34.264 525.211 35.064C524.827 35.864 524.635 36.936 524.635 38.28V51H516.475ZM555.942 51.48C553.542 51.48 551.334 51.096 549.318 50.328C547.334 49.528 545.654 48.392 544.278 46.92L548.07 42.408C548.87 43.432 549.926 44.296 551.238 45C552.582 45.672 554.038 46.008 555.606 46.008C556.534 46.008 557.318 45.864 557.958 45.576C558.598 45.288 558.918 44.84 558.918 44.232C558.918 43.784 558.758 43.432 558.438 43.176C558.118 42.888 557.494 42.648 556.566 42.456L553.302 41.784C550.294 41.144 548.166 40.232 546.918 39.048C545.702 37.864 545.094 36.296 545.094 34.344C545.094 33.032 545.494 31.784 546.294 30.6C547.094 29.416 548.31 28.44 549.942 27.672C551.606 26.904 553.702 26.52 556.23 26.52C558.662 26.52 560.79 26.888 562.614 27.624C564.438 28.328 565.894 29.336 566.982 30.648L563.142 35.064C562.374 34.104 561.382 33.352 560.166 32.808C558.982 32.264 557.798 31.992 556.614 31.992C555.846 31.992 555.206 32.072 554.694 32.232C554.214 32.36 553.846 32.552 553.59 32.808C553.334 33.064 553.206 33.384 553.206 33.768C553.206 34.216 553.414 34.6 553.83 34.92C554.246 35.208 554.95 35.448 555.942 35.64L560.262 36.504C562.694 36.984 564.438 37.816 565.494 39C566.582 40.152 567.126 41.56 567.126 43.224C567.126 45.56 566.198 47.528 564.342 49.128C562.486 50.696 559.686 51.48 555.942 51.48ZM582.934 51.48C580.31 51.48 578.038 51 576.118 50.04C574.198 49.048 572.71 47.624 571.654 45.768C570.63 43.88 570.118 41.624 570.118 39C570.118 36.344 570.646 34.088 571.702 32.232C572.758 30.376 574.214 28.968 576.07 28.008C577.958 27.016 580.118 26.52 582.549 26.52C585.046 26.52 587.174 27.016 588.934 28.008C590.694 28.968 592.038 30.312 592.966 32.04C593.894 33.736 594.358 35.688 594.358 37.896C594.358 38.504 594.342 39.096 594.31 39.672C594.278 40.216 594.23 40.68 594.166 41.064H575.398V36.696H590.566L586.678 38.184C586.678 36.904 586.518 35.832 586.198 34.968C585.91 34.072 585.462 33.4 584.854 32.952C584.246 32.472 583.478 32.232 582.549 32.232C581.558 32.232 580.71 32.472 580.006 32.952C579.302 33.432 578.774 34.184 578.422 35.208C578.07 36.232 577.894 37.544 577.894 39.144C577.894 40.712 578.086 41.992 578.47 42.984C578.886 43.944 579.462 44.648 580.198 45.096C580.966 45.512 581.878 45.72 582.934 45.72C584.086 45.72 585.03 45.48 585.766 45C586.502 44.52 587.03 43.848 587.35 42.984L593.878 45.144C593.43 46.52 592.646 47.688 591.526 48.648C590.438 49.576 589.142 50.28 587.638 50.76C586.166 51.24 584.598 51.48 582.934 51.48ZM179.6 75.84C182.448 75.84 184.976 76.288 187.184 77.184C189.424 78.08 191.36 79.424 192.992 81.216L189.056 86.544C187.68 85.104 186.208 84.032 184.64 83.328C183.104 82.592 181.376 82.224 179.456 82.224C178.336 82.224 177.424 82.352 176.72 82.608C176.048 82.864 175.552 83.216 175.232 83.664C174.912 84.112 174.752 84.624 174.752 85.2C174.752 86 175.088 86.624 175.76 87.072C176.464 87.488 177.392 87.824 178.544 88.08L183.728 89.28C186.832 89.984 189.104 91.056 190.544 92.496C191.984 93.904 192.704 95.776 192.704 98.112C192.704 100.352 192.128 102.256 190.976 103.824C189.856 105.36 188.304 106.528 186.32 107.328C184.336 108.096 182.08 108.48 179.552 108.48C177.504 108.48 175.552 108.256 173.696 107.808C171.84 107.328 170.144 106.656 168.608 105.792C167.104 104.928 165.824 103.936 164.768 102.816L168.704 97.296C169.504 98.224 170.48 99.056 171.632 99.792C172.784 100.496 174.032 101.056 175.376 101.472C176.72 101.888 178.08 102.096 179.456 102.096C180.544 102.096 181.424 101.984 182.096 101.76C182.8 101.536 183.328 101.2 183.68 100.752C184.032 100.304 184.208 99.776 184.208 99.168C184.208 98.496 183.968 97.92 183.488 97.44C183.04 96.96 182.192 96.576 180.944 96.288L175.232 94.992C173.664 94.64 172.192 94.144 170.816 93.504C169.44 92.832 168.32 91.904 167.456 90.72C166.592 89.536 166.16 88.016 166.16 86.16C166.16 84.176 166.688 82.416 167.744 80.88C168.832 79.312 170.384 78.08 172.4 77.184C174.416 76.288 176.816 75.84 179.6 75.84ZM205.229 84V108H197.069V84H205.229ZM201.149 81.216C199.485 81.216 198.269 80.912 197.501 80.304C196.765 79.664 196.397 78.672 196.397 77.328C196.397 75.952 196.765 74.96 197.501 74.352C198.269 73.712 199.485 73.392 201.149 73.392C202.813 73.392 204.013 73.712 204.749 74.352C205.517 74.96 205.901 75.952 205.901 77.328C205.901 78.672 205.517 79.664 204.749 80.304C204.013 80.912 202.813 81.216 201.149 81.216ZM211.037 108V84H218.333L218.573 88.656C219.341 86.96 220.413 85.68 221.789 84.816C223.197 83.952 224.797 83.52 226.589 83.52C228.317 83.52 229.853 83.92 231.197 84.72C232.541 85.52 233.517 86.704 234.125 88.272C234.605 87.216 235.245 86.336 236.045 85.632C236.877 84.928 237.805 84.4 238.829 84.048C239.885 83.696 240.973 83.52 242.093 83.52C243.661 83.52 245.053 83.84 246.269 84.48C247.485 85.12 248.445 86.064 249.149 87.312C249.885 88.56 250.253 90.128 250.253 92.016V108H242.093V93.888C242.093 92.384 241.789 91.328 241.181 90.72C240.605 90.08 239.837 89.76 238.877 89.76C238.077 89.76 237.357 89.968 236.717 90.384C236.109 90.768 235.629 91.36 235.277 92.16C234.925 92.96 234.749 93.968 234.749 95.184V108H226.589V93.888C226.589 92.384 226.285 91.328 225.677 90.72C225.069 90.08 224.301 89.76 223.373 89.76C222.637 89.76 221.949 89.952 221.309 90.336C220.669 90.72 220.157 91.328 219.773 92.16C219.389 92.96 219.197 94.016 219.197 95.328V108H211.037ZM263.96 108.48C262.36 108.48 260.936 108.208 259.688 107.664C258.472 107.088 257.512 106.176 256.808 104.928C256.136 103.68 255.8 102.048 255.8 100.032V84H263.96V98.112C263.96 99.488 264.216 100.528 264.728 101.232C265.272 101.904 266.152 102.24 267.368 102.24C267.912 102.24 268.424 102.144 268.904 101.952C269.416 101.728 269.848 101.408 270.2 100.992C270.584 100.544 270.872 99.984 271.064 99.312C271.288 98.608 271.4 97.792 271.4 96.864V84H279.56V108H272.264L272.024 103.488C271.544 104.608 270.904 105.536 270.104 106.272C269.336 107.008 268.44 107.568 267.416 107.952C266.392 108.304 265.24 108.48 263.96 108.48ZM293.492 73.824V99.84C293.492 100.8 293.636 101.536 293.924 102.048C294.244 102.528 294.82 102.768 295.652 102.768C296.1 102.768 296.484 102.736 296.804 102.672C297.124 102.608 297.492 102.512 297.908 102.384L297.38 107.28C296.836 107.632 296.084 107.92 295.124 108.144C294.196 108.368 293.316 108.48 292.484 108.48C289.764 108.48 287.892 107.824 286.868 106.512C285.844 105.168 285.332 103.296 285.332 100.896V73.824H293.492ZM314.097 92.784C314.097 91.664 313.793 90.784 313.185 90.144C312.577 89.472 311.761 89.136 310.737 89.136C309.713 89.136 308.833 89.408 308.097 89.952C307.361 90.464 306.849 91.392 306.561 92.736L299.649 91.104C300.097 88.8 301.265 86.96 303.153 85.584C305.073 84.208 307.761 83.52 311.217 83.52C313.521 83.52 315.489 83.872 317.121 84.576C318.785 85.248 320.049 86.272 320.913 87.648C321.777 88.992 322.209 90.656 322.209 92.64V101.424C322.209 102.672 322.753 103.296 323.841 103.296C324.097 103.296 324.337 103.28 324.561 103.248C324.817 103.216 325.041 103.168 325.233 103.104L324.753 107.76C324.305 107.984 323.793 108.144 323.217 108.24C322.641 108.368 321.985 108.432 321.249 108.432C320.033 108.432 318.945 108.24 317.985 107.856C317.025 107.44 316.273 106.832 315.729 106.032C315.185 105.2 314.913 104.16 314.913 102.912V102.624L315.825 102.288C315.825 103.664 315.409 104.816 314.577 105.744C313.777 106.672 312.737 107.36 311.457 107.808C310.209 108.256 308.881 108.48 307.473 108.48C305.041 108.48 303.105 107.92 301.665 106.8C300.225 105.648 299.505 104 299.505 101.856C299.505 100.16 300.017 98.736 301.041 97.584C302.065 96.432 303.681 95.632 305.889 95.184L314.865 93.312L314.817 97.632L310.305 98.592C309.441 98.784 308.769 99.056 308.289 99.408C307.809 99.76 307.569 100.32 307.569 101.088C307.569 101.792 307.809 102.32 308.289 102.672C308.801 103.024 309.393 103.2 310.065 103.2C310.609 103.2 311.121 103.12 311.601 102.96C312.081 102.8 312.497 102.56 312.849 102.24C313.233 101.888 313.537 101.456 313.761 100.944C313.985 100.432 314.097 99.824 314.097 99.12V92.784ZM338.395 76.368V99.456C338.395 100.608 338.667 101.44 339.211 101.952C339.755 102.432 340.523 102.672 341.515 102.672C342.251 102.672 342.891 102.576 343.435 102.384C343.979 102.192 344.475 101.936 344.923 101.616L345.787 106.656C344.987 107.2 343.979 107.648 342.763 108C341.579 108.32 340.363 108.48 339.115 108.48C336.395 108.48 334.235 107.904 332.635 106.752C331.067 105.568 330.283 103.584 330.283 100.8V78.624L338.395 76.368ZM345.403 84V89.808H326.203V84H345.403ZM357.338 84V108H349.178V84H357.338ZM353.258 81.216C351.594 81.216 350.378 80.912 349.61 80.304C348.874 79.664 348.506 78.672 348.506 77.328C348.506 75.952 348.874 74.96 349.61 74.352C350.378 73.712 351.594 73.392 353.258 73.392C354.922 73.392 356.122 73.712 356.858 74.352C357.626 74.96 358.01 75.952 358.01 77.328C358.01 78.672 357.626 79.664 356.858 80.304C356.122 80.912 354.922 81.216 353.258 81.216ZM374.427 83.52C376.923 83.52 379.115 84.016 381.003 85.008C382.891 86 384.363 87.424 385.419 89.28C386.507 91.136 387.051 93.376 387.051 96C387.051 98.624 386.507 100.864 385.419 102.72C384.363 104.576 382.891 106 381.003 106.992C379.115 107.984 376.923 108.48 374.427 108.48C371.963 108.48 369.787 107.984 367.899 106.992C366.011 106 364.539 104.576 363.483 102.72C362.427 100.864 361.899 98.624 361.899 96C361.899 93.376 362.427 91.136 363.483 89.28C364.539 87.424 366.011 86 367.899 85.008C369.787 84.016 371.963 83.52 374.427 83.52ZM374.427 89.328C373.531 89.328 372.747 89.568 372.075 90.048C371.435 90.496 370.939 91.216 370.587 92.208C370.267 93.168 370.107 94.432 370.107 96C370.107 97.568 370.267 98.848 370.587 99.84C370.939 100.8 371.435 101.52 372.075 102C372.747 102.448 373.531 102.672 374.427 102.672C375.355 102.672 376.139 102.448 376.779 102C377.451 101.52 377.963 100.784 378.315 99.792C378.667 98.8 378.843 97.536 378.843 96C378.843 94.432 378.667 93.168 378.315 92.208C377.963 91.216 377.451 90.496 376.779 90.048C376.139 89.568 375.355 89.328 374.427 89.328ZM391.647 108V84H398.943L399.375 92.256L398.463 91.344C398.943 88.784 399.951 86.848 401.487 85.536C403.023 84.192 404.959 83.52 407.295 83.52C408.927 83.52 410.351 83.84 411.567 84.48C412.783 85.12 413.727 86.08 414.399 87.36C415.103 88.608 415.455 90.16 415.455 92.016V108H407.295V94.176C407.295 92.544 406.991 91.408 406.383 90.768C405.775 90.096 404.975 89.76 403.983 89.76C403.247 89.76 402.559 89.952 401.919 90.336C401.279 90.688 400.767 91.264 400.383 92.064C399.999 92.864 399.807 93.936 399.807 95.28V108H391.647ZM446.432 72.672L450.272 76.416C447.552 78.848 445.584 81.52 444.368 84.432C443.152 87.344 442.544 90.832 442.544 94.896C442.544 98.96 443.152 102.448 444.368 105.36C445.584 108.272 447.552 110.96 450.272 113.424L446.432 117.168C442.752 114.704 439.952 111.632 438.032 107.952C436.144 104.24 435.2 99.888 435.2 94.896C435.2 89.936 436.144 85.6 438.032 81.888C439.952 78.176 442.752 75.104 446.432 72.672ZM461.885 76.32V108H453.629V76.32H461.885ZM483.742 76.32C487.454 76.32 490.334 77.2 492.382 78.96C494.43 80.72 495.454 83.088 495.454 86.064C495.454 88.208 494.99 90.032 494.062 91.536C493.166 93.008 491.838 94.128 490.078 94.896C488.35 95.632 486.254 96 483.79 96L483.022 96.432H477.022V108H468.91V76.32H483.742ZM482.59 90.576C483.966 90.576 485.07 90.288 485.902 89.712C486.734 89.136 487.15 88.08 487.15 86.544C487.15 84.976 486.718 83.92 485.854 83.376C484.99 82.832 483.902 82.56 482.59 82.56H477.022V90.576H482.59ZM487.438 92.304L497.278 108H488.158L480.334 94.128L487.438 92.304ZM513.491 75.84C516.339 75.84 518.867 76.288 521.075 77.184C523.315 78.08 525.251 79.424 526.883 81.216L522.947 86.544C521.571 85.104 520.099 84.032 518.531 83.328C516.995 82.592 515.267 82.224 513.347 82.224C512.227 82.224 511.315 82.352 510.611 82.608C509.939 82.864 509.443 83.216 509.123 83.664C508.803 84.112 508.643 84.624 508.643 85.2C508.643 86 508.979 86.624 509.651 87.072C510.355 87.488 511.283 87.824 512.435 88.08L517.619 89.28C520.723 89.984 522.995 91.056 524.435 92.496C525.875 93.904 526.595 95.776 526.595 98.112C526.595 100.352 526.019 102.256 524.867 103.824C523.747 105.36 522.195 106.528 520.211 107.328C518.227 108.096 515.971 108.48 513.443 108.48C511.395 108.48 509.443 108.256 507.587 107.808C505.731 107.328 504.035 106.656 502.499 105.792C500.995 104.928 499.715 103.936 498.659 102.816L502.595 97.296C503.395 98.224 504.371 99.056 505.523 99.792C506.675 100.496 507.923 101.056 509.267 101.472C510.611 101.888 511.971 102.096 513.347 102.096C514.435 102.096 515.315 101.984 515.987 101.76C516.691 101.536 517.219 101.2 517.571 100.752C517.923 100.304 518.099 99.776 518.099 99.168C518.099 98.496 517.859 97.92 517.379 97.44C516.931 96.96 516.083 96.576 514.835 96.288L509.123 94.992C507.555 94.64 506.083 94.144 504.707 93.504C503.331 92.832 502.211 91.904 501.347 90.72C500.483 89.536 500.051 88.016 500.051 86.16C500.051 84.176 500.579 82.416 501.635 80.88C502.723 79.312 504.275 78.08 506.291 77.184C508.307 76.288 510.707 75.84 513.491 75.84ZM531.273 117.168L527.433 113.424C530.153 110.96 532.121 108.288 533.337 105.408C534.553 102.496 535.161 99.008 535.161 94.944C535.161 90.848 534.553 87.344 533.337 84.432C532.121 81.52 530.153 78.848 527.433 76.416L531.273 72.672C534.953 75.104 537.737 78.176 539.625 81.888C541.545 85.6 542.505 89.952 542.505 94.944C542.505 99.872 541.545 104.192 539.625 107.904C537.737 111.616 534.953 114.704 531.273 117.168Z" fill="#0F172A"/>
</svg>
